<svg width="60" height="60" fill="none" xmlns="http://www.w3.org/2000/svg"><path d="M56.87 0H4.872A4.006 4.006 0 00.87 4.001V37a1 1 0 001 1h58a1 1 0 001-1V4.001a4.006 4.006 0 00-4-4.001zm2 36h-56V4.001C2.87 2.897 3.77 2 4.873 2H56.87c1.103 0 2 .897 2 2.001V36z" fill="#EF2A82"/><path d="M59.87 36h-58a1 1 0 00-1 1v4.999a4.006 4.006 0 004.002 4H56.87a4.006 4.006 0 004-4V37a1 1 0 00-1-1zm-1 5.999a2.003 2.003 0 01-2 2.001H4.872a2.003 2.003 0 01-2.001-2.001V38h56v3.999z" fill="#EF2A82"/><path d="M55.87 4h-50a1 1 0 00-1 1v32a1 1 0 001 1h50a1 1 0 001-1V5a1 1 0 00-1-1zm-1 32h-48V6h48v30zm-11 16h-26c-1.653 0-3 1.346-3 3s1.347 3 3 3h26c1.655 0 3-1.346 3-3s-1.345-3-3-3zm0 4h-26a1.001 1.001 0 010-2h26a1.001 1.001 0 010 2z" fill="#EF2A82"/><path d="M41.87 52c-3.317 0-5-2.355-5-7a1 1 0 00-1-1h-10a1 1 0 00-1 1c0 4.645-1.681 7-5 7a1 1 0 000 2h22a1 1 0 000-2zm-17.128 0c1.23-1.364 1.956-3.395 2.101-6h8.055c.145 2.605.87 4.636 2.102 6H24.742z" fill="#EF2A82"/></svg>